<mxfile host="www.draw.io" modified="2020-02-03T16:37:51.451Z" agent="Mozilla/5.0 (Windows NT 10.0; Win64; x64) AppleWebKit/537.36 (KHTML, like Gecko) Chrome/79.0.3945.130 Safari/537.36" etag="VCu5rBt8AUD9BqUXOBFu" version="12.6.4" type="github">
  <diagram id="JN0QgcLv2ruj5YBZY5oj" name="Page-1">
    <mxGraphModel dx="1368" dy="634" grid="1" gridSize="10" guides="1" tooltips="1" connect="1" arrows="1" fold="1" page="1" pageScale="1" pageWidth="850" pageHeight="1100" math="0" shadow="0">
      <root>
        <mxCell id="0"/>
        <mxCell id="1" parent="0"/>
        <mxCell id="S_tOJ5bn3UWdO5D_vSKJ-2" value="11" style="whiteSpace=wrap;html=1;aspect=fixed;" vertex="1" parent="1">
          <mxGeometry x="150" y="110" width="30" height="30" as="geometry"/>
        </mxCell>
        <mxCell id="S_tOJ5bn3UWdO5D_vSKJ-3" value="2" style="whiteSpace=wrap;html=1;aspect=fixed;" vertex="1" parent="1">
          <mxGeometry x="180" y="110" width="30" height="30" as="geometry"/>
        </mxCell>
        <mxCell id="S_tOJ5bn3UWdO5D_vSKJ-4" value="85" style="whiteSpace=wrap;html=1;aspect=fixed;" vertex="1" parent="1">
          <mxGeometry x="210" y="110" width="30" height="30" as="geometry"/>
        </mxCell>
        <mxCell id="S_tOJ5bn3UWdO5D_vSKJ-5" value="5" style="whiteSpace=wrap;html=1;aspect=fixed;" vertex="1" parent="1">
          <mxGeometry x="240" y="110" width="30" height="30" as="geometry"/>
        </mxCell>
        <mxCell id="S_tOJ5bn3UWdO5D_vSKJ-6" value="17" style="whiteSpace=wrap;html=1;aspect=fixed;" vertex="1" parent="1">
          <mxGeometry x="270" y="110" width="30" height="30" as="geometry"/>
        </mxCell>
        <mxCell id="S_tOJ5bn3UWdO5D_vSKJ-7" value="" style="whiteSpace=wrap;html=1;aspect=fixed;" vertex="1" parent="1">
          <mxGeometry x="300" y="110" width="30" height="30" as="geometry"/>
        </mxCell>
        <mxCell id="S_tOJ5bn3UWdO5D_vSKJ-8" value="1" style="whiteSpace=wrap;html=1;aspect=fixed;" vertex="1" parent="1">
          <mxGeometry x="330" y="110" width="30" height="30" as="geometry"/>
        </mxCell>
        <mxCell id="S_tOJ5bn3UWdO5D_vSKJ-9" value="0&lt;span style=&quot;color: rgba(0 , 0 , 0 , 0) ; font-family: monospace ; font-size: 0px ; white-space: nowrap&quot;&gt;%3CmxGraphModel%3E%3Croot%3E%3CmxCell%20id%3D%220%22%2F%3E%3CmxCell%20id%3D%221%22%20parent%3D%220%22%2F%3E%3CmxCell%20id%3D%222%22%20value%3D%221%22%20style%3D%22text%3Bhtml%3D1%3BstrokeColor%3Dnone%3BfillColor%3Dnone%3Balign%3Dcenter%3BverticalAlign%3Dmiddle%3BwhiteSpace%3Dwrap%3Brounded%3D0%3B%22%20vertex%3D%221%22%20parent%3D%221%22%3E%3CmxGeometry%20x%3D%22155%22%20y%3D%2290%22%20width%3D%2220%22%20height%3D%2220%22%20as%3D%22geometry%22%2F%3E%3C%2FmxCell%3E%3C%2Froot%3E%3C%2FmxGraphModel%3E&lt;/span&gt;" style="text;html=1;strokeColor=none;fillColor=none;align=center;verticalAlign=middle;whiteSpace=wrap;rounded=0;" vertex="1" parent="1">
          <mxGeometry x="155" y="90" width="20" height="20" as="geometry"/>
        </mxCell>
        <mxCell id="S_tOJ5bn3UWdO5D_vSKJ-10" value="1" style="text;html=1;strokeColor=none;fillColor=none;align=center;verticalAlign=middle;whiteSpace=wrap;rounded=0;" vertex="1" parent="1">
          <mxGeometry x="185" y="90" width="20" height="20" as="geometry"/>
        </mxCell>
        <mxCell id="S_tOJ5bn3UWdO5D_vSKJ-11" value="2" style="text;html=1;strokeColor=none;fillColor=none;align=center;verticalAlign=middle;whiteSpace=wrap;rounded=0;" vertex="1" parent="1">
          <mxGeometry x="215" y="90" width="20" height="20" as="geometry"/>
        </mxCell>
        <mxCell id="S_tOJ5bn3UWdO5D_vSKJ-12" value="3" style="text;html=1;strokeColor=none;fillColor=none;align=center;verticalAlign=middle;whiteSpace=wrap;rounded=0;" vertex="1" parent="1">
          <mxGeometry x="245" y="90" width="20" height="20" as="geometry"/>
        </mxCell>
        <mxCell id="S_tOJ5bn3UWdO5D_vSKJ-13" value="4" style="text;html=1;strokeColor=none;fillColor=none;align=center;verticalAlign=middle;whiteSpace=wrap;rounded=0;" vertex="1" parent="1">
          <mxGeometry x="275" y="90" width="20" height="20" as="geometry"/>
        </mxCell>
        <mxCell id="S_tOJ5bn3UWdO5D_vSKJ-14" value="5" style="text;html=1;strokeColor=none;fillColor=none;align=center;verticalAlign=middle;whiteSpace=wrap;rounded=0;" vertex="1" parent="1">
          <mxGeometry x="305" y="90" width="20" height="20" as="geometry"/>
        </mxCell>
        <mxCell id="S_tOJ5bn3UWdO5D_vSKJ-15" value="6" style="text;html=1;strokeColor=none;fillColor=none;align=center;verticalAlign=middle;whiteSpace=wrap;rounded=0;" vertex="1" parent="1">
          <mxGeometry x="335" y="90" width="20" height="20" as="geometry"/>
        </mxCell>
      </root>
    </mxGraphModel>
  </diagram>
</mxfile>
